Waiting for data. Press Ctrl+C to end.
Source  Event                  Ch  Data
 24:0   Note on                 0, note 48, velocity 63
 24:0   Note off                0, note 48
 24:0   Note on                 0, note 49, velocity 63
 24:0   Note off                0, note 49
 24:0   Note on                 0, note 50, velocity 63
 24:0   Note off                0, note 50
 24:0   Note on                 0, note 51, velocity 63
 24:0   Note off                0, note 51
 24:0   Note on                 0, note 52, velocity 63
 24:0   Note off                0, note 52
 24:0   Note on                 0, note 53, velocity 63
 24:0   Note off                0, note 53
 24:0   Note on                 0, note 54, velocity 63
 24:0   Note off                0, note 54
 24:0   Note on                 0, note 55, velocity 63
 24:0   Note off                0, note 55
 24:0   Note on                 0, note 56, velocity 63
 24:0   Note off                0, note 56
 24:0   Note on                 0, note 57, velocity 63
 24:0   Note off                0, note 57
 24:0   Note on                 0, note 58, velocity 63
 24:0   Note off                0, note 58
 24:0   Note on                 0, note 59, velocity 63
 24:0   Note off                0, note 59
 24:0   Note on                 0, note 60, velocity 63
 24:0   Note off                0, note 60
 24:0   Note on                 0, note 61, velocity 63
 24:0   Note off                0, note 61
 24:0   Note on                 0, note 62, velocity 63
 24:0   Note off                0, note 62
 24:0   Note on                 0, note 63, velocity 63
 24:0   Note off                0, note 63
 24:0   Note on                 0, note 64, velocity 63
 24:0   Note off                0, note 64
 24:0   Note on                 0, note 65, velocity 63
 24:0   Note off                0, note 65
 24:0   Note on                 0, note 66, velocity 63
 24:0   Note off                0, note 66
 24:0   Note on                 0, note 67, velocity 63
 24:0   Note off                0, note 67
 24:0   Note on                 0, note 68, velocity 63
 24:0   Note off                0, note 68
 24:0   Note on                 0, note 69, velocity 63
 24:0   Note off                0, note 69
 24:0   Note on                 0, note 70, velocity 63
 24:0   Note off                0, note 70
 24:0   Note on                 0, note 71, velocity 63
 24:0   Note off                0, note 71
 24:0   Note on                 0, note 40, velocity 63
 24:0   Note off                0, note 40
 24:0   Note on                 0, note 41, velocity 63
 24:0   Note off                0, note 41
 24:0   Note on                 0, note 42, velocity 63
 24:0   Note off                0, note 42
 24:0   Note on                 0, note 43, velocity 63
 24:0   Note off                0, note 43
 24:0   Note on                 0, note 44, velocity 63
 24:0   Note off                0, note 44
 24:0   Note on                 0, note 45, velocity 63
 24:0   Note off                0, note 45
 24:0   Note on                 0, note 46, velocity 63
 24:0   Note off                0, note 46
 24:0   Note on                 0, note 47, velocity 63
 24:0   Note off                0, note 47
 24:0   Note on                 0, note 24, velocity 63
 24:0   Note off                0, note 24
 24:0   Note on                 0, note 25, velocity 63
 24:0   Note off                0, note 25
 24:0   Note on                 0, note 26, velocity 63
 24:0   Note off                0, note 26
 24:0   Note on                 0, note 72, velocity 63
 24:0   Note off                0, note 72
 24:0   Note on                 0, note 73, velocity 63
 24:0   Note off                0, note 73
 24:0   Note on                 0, note 74, velocity 63
 24:0   Note off                0, note 74
 24:0   Note on                 0, note 75, velocity 63
 24:0   Note off                0, note 75
 24:0   Note on                 0, note 76, velocity 63
 24:0   Note off                0, note 76
 24:0   Note on                 0, note 77, velocity 63
 24:0   Note off                0, note 77
 24:0   Note on                 0, note 78, velocity 63
 24:0   Note off                0, note 78
 24:0   Note on                 0, note 79, velocity 63
 24:0   Note off                0, note 79
 24:0   Note on                 0, note 80, velocity 63
 24:0   Note off                0, note 80
 24:0   Note on                 0, note 81, velocity 63
 24:0   Note off                0, note 81
 24:0   Note on                 0, note 82, velocity 63
 24:0   Note off                0, note 82
 24:0   Note on                 0, note 83, velocity 63
 24:0   Note off                0, note 83
 24:0   Note on                 0, note 84, velocity 63
 24:0   Note off                0, note 84
 24:0   Note on                 0, note 85, velocity 63
 24:0   Note off                0, note 85
 24:0   Note on                 0, note 86, velocity 63
 24:0   Note off                0, note 86
 24:0   Note on                 0, note 87, velocity 63
 24:0   Note off                0, note 87
